<?xml version="1.0" standalone="no"?>
<!DOCTYPE svg PUBLIC "-//W3C//DTD SVG 20010904//EN"
 "http://www.w3.org/TR/2001/REC-SVG-20010904/DTD/svg10.dtd">
<svg version="1.0" xmlns="http://www.w3.org/2000/svg"
 width="225.000000pt" height="225.000000pt" viewBox="0 0 225.000000 225.000000"
 preserveAspectRatio="xMidYMid meet">
<metadata>
Created by potrace 1.16, written by Peter Selinger 2001-2019
</metadata>
<g transform="translate(0.000000,225.000000) scale(0.100000,-0.100000)"
fill="#000000" stroke="none">
<path d="M0 1125 l0 -1125 1125 0 1125 0 0 1125 0 1125 -1125 0 -1125 0 0
-1125z m1678 389 c73 -20 135 -81 156 -153 9 -30 14 -56 12 -58 -1 -2 -53 -6
-114 -10 l-110 -6 -15 36 c-27 63 -117 88 -171 46 -60 -47 -25 -81 126 -119
137 -34 194 -58 241 -99 107 -95 84 -288 -45 -377 -59 -40 -122 -54 -243 -54
-183 0 -265 38 -322 148 -18 35 -33 77 -33 92 0 27 3 29 53 34 28 3 80 7 114
9 l61 3 7 -34 c14 -74 96 -117 176 -93 71 21 85 97 26 136 -14 9 -67 27 -118
40 -120 32 -214 79 -253 128 -27 33 -31 48 -34 110 -4 68 -2 75 30 122 59 89
173 130 333 119 39 -3 94 -12 123 -20z m-731 -9 c35 -10 62 -27 86 -54 46 -51
61 -99 54 -174 -7 -82 -43 -133 -121 -171 l-58 -30 35 -18 c20 -10 47 -33 60
-50 24 -33 147 -261 147 -273 0 -3 -62 -4 -137 -3 l-138 3 -72 135 c-79 146
-108 180 -154 180 l-29 0 0 -160 0 -160 -120 0 -120 0 0 395 0 395 258 0 c201
0 270 -3 309 -15z"/>
<path d="M620 1280 l0 -80 63 0 c118 0 161 26 159 94 -1 52 -31 66 -133 66
l-89 0 0 -80z"/>
</g>
</svg>
